<svg width="36px" height="24px" viewBox="0 0 36 24" version="1.1" xmlns="http://www.w3.org/2000/svg">
  <g stroke="none" stroke-width="1" fill="none" fill-rule="evenodd" opacity="0.5">
    <g fill="#7A899B">
      <path d="M24,0 C24.5522847,-1.01453063e-16 25,0.44771525 25,1 L25,23 C25,23.5522847 24.5522847,24 24,24 L1,24 C0.44771525,24 6.76353751e-17,23.5522847 0,23 L0,1 C-6.76353751e-17,0.44771525 0.44771525,1.01453063e-16 1,0 L24,0 Z M35.9760993,3.33612752 C35.9918712,3.37323786 36,3.41314688 36,3.45346971 L36,19.5465303 C36,19.7122157 35.8656854,19.8465303 35.7,19.8465303 C35.6596772,19.5465303 35.6197682,19.8384015 35.5826578,19.8226296 L28.3044297,16.7293826 C28.1198453,16.6509343 28,16.4697802 28,16.2692172 L28,6.73078285 C28,6.53021982 28.1198453,6.34906574 28.3044297,6.27061739 L35.5826578,3.17737043 C35.7351432,3.11256413 35.911293,3.1836421 35.9760993,3.33612752 Z" />
    </g>
  </g>
</svg>
